# xmcd CD database file
#
# Track frame offsets:
#	150
#	7951
#	24370
#	40360
#	56346
#	75073
#	89864
#	103946
#	118434
#	128847
#	147745
#	170179
#	195235
#	214234
#	227999
#	241955
#
# Disc length: 3365 seconds
#
# Revision: 1
# Processed by: cddbd v1.5.1PL2 Copyright (c) Steve Scherf et al.
# Submitted via: CDex 1.51
#
DISCID=e20d2310
DTITLE=Victor Smolski - Majesty and Passion
DYEAR=2004
DGENRE=Heavy Metal
TTITLE0=Majesty and Passion
TTITLE1=Suite 1 - Courante
TTITLE2=Suite 1 - Gavotte
TTITLE3=Suite 1 - Forlane
TTITLE4=Suite 1 - Menuet
TTITLE5=Concert For Violin and Oboe With Orchstra - Chapter 3
TTITLE6=Suite 2 - Bourree
TTITLE7=Suite 2 - Menuet
TTITLE8=Suite 4 - Sarabande
TTITLE9=Concert For 2 Violins With Orchestra - Chapter 1
TTITLE10=Concert For 2 Violins With Orchestra - Chapter 2
TTITLE11=Concert For 2 Violins With Orchestra - Chapter 3
TTITLE12=1Rocker Rider
TTITLE13=Day Without Your Love
TTITLE14=Destiny
TTITLE15=Longing (Dedicated To My Family)
EXTD=YEAR: 2004
EXTT0=
EXTT1=
EXTT2=
EXTT3=
EXTT4=
EXTT5=
EXTT6=
EXTT7=
EXTT8=
EXTT9=
EXTT10=
EXTT11=
EXTT12=
EXTT13=
EXTT14=
EXTT15=
PLAYORDER=
